<svg id="Layer_11" data-name="Layer 11" xmlns="http://www.w3.org/2000/svg" viewBox="0 0 1920 1080"><path d="M847.94,788c-1.7,8.46-3.09,16.38-4.94,24.19a75.14,75.14,0,0,1-4.09,11.42c-7.84,18.82-21.41,31.67-40.73,38.16-25.89,8.69-51.64,8.32-77-2.2-14.14-5.86-25.82-15.31-35.88-26.62-24.79-27.86-39.74-60-42.66-97.58-1.81-23.26-1.65-46.48-1-69.75.55-20.71,1-41.42,1-62.13,0-5.47-1.47-10.94-2.17-16.42a19.49,19.49,0,0,1-.18-5.33,4,4,0,0,1,4.82-3.63c21.82,2.74,43.43-.65,65.1-2.19,32.64-2.32,65.24-5.71,98-4.34,36,1.5,68.31,13.72,97.43,34.6a129.38,129.38,0,0,1,14.89,13c13.89,13.62,20.21,30.66,21.34,49.72a124.93,124.93,0,0,1-10.4,58.84c-11,24.86-29.61,41.87-54.44,52.32-5.61,2.37-11.43,4.23-17.57,6.47,20.19,24.05,40,48.38,56.13,75.31a363.84,363.84,0,0,1,37.57,85.22l1-.2V544.24c-4.44-.08-8.24,1.42-12.08,3.77-16.9,10.35-34.58,18.16-55.19,15a109.06,109.06,0,0,1-38.25-14c-22.62-13.13-38.87-32.25-51.78-54.56-1.32-2.27-2.66-5.07-.4-7,1.53-1.31,4.36-1.79,6.52-1.61,21.75,1.9,43.47,2.13,65.08-1.27,16.63-2.61,27.62-12.67,31-27.49,2.19-9.72-1.33-15.48-11-17.54a41.43,41.43,0,0,0-21.78.84c-11.14,3.63-22.27,7.86-34.16,7.3a140.37,140.37,0,0,1-25.74-3.54c-10.88-2.57-19.33-9.46-26.18-18.13a14.65,14.65,0,0,1-2.79-6.95c-3.55-27.93.61-55.05,8.95-81.69,1.62-5.2,5.48-5.57,10-1.43,5.61,5.2,11.27,10.36,17.22,15.15,14,11.28,30,18.7,47.35,23.12,8.73,2.22,17.48,2.92,26.25.43,10.18-2.88,17.21-14.17,15.22-24.55A17.35,17.35,0,0,0,894.52,339a71.63,71.63,0,0,0-13.8-7.46c-12.73-4.9-25.72-9.14-38.49-13.93-9.21-3.45-17.67-8.25-24.53-15.52-7.26-7.69-8.05-13.29-3.21-22.76,8-15.6,18.62-29.38,29.41-43.05,2.23-2.82,3.73-2.55,7.35-.35,11.86,7.2,24.63,10.88,38.61,9.08a25.21,25.21,0,0,0,6.48-1.82c6.55-2.8,11.91-7,12.12-14.74s-2.88-14.33-9.87-18c-6.07-3.18-12.67-5.39-19.05-8-3.81-1.55-5.66-4.06-5.08-7.92a11,11,0,0,1,2.34-4.69q27-34.68,54-69.26l21.06-27c.83-1.06,1.63-2.16,2.52-3.17,3.62-4.11,7-4.06,10.39.3C972,100,979,109.31,986.15,118.61l54.15,70.85a22.64,22.64,0,0,1,1.85,2.55c2,3.46.3,6.7-3.6,7.21a49.37,49.37,0,0,0-31.24,16.11c-5.26,5.79-5.7,10.77-2.1,17.72,6.51,12.6,21.17,18.09,36.38,13.17,4.5-1.46,8.63-4.1,12.85-6.35,1.84-1,3.42-2.45,5.23-3.51,4.74-2.79,6.35-2.61,10.33,1.16,10,9.52,19.84,19.29,26.94,31.31,3,5,5.5,10.3,8.1,15.53,1.93,3.89,1.25,7.41-1.53,10.84-11.1,13.68-24.16,24.54-41.2,30.11-9.27,3-18.52,6.15-27.54,9.83a47.39,47.39,0,0,0-13,7.8c-8.37,7.24-8.17,17.18,0,24.61,9.23,8.38,20.22,9.81,32,7.73a80.81,80.81,0,0,0,24.88-9c8.68-4.75,17.13-9.93,25.64-15,4.9-2.91,9.62-6.14,14.61-8.88,6.28-3.45,9.93-1.52,10.93,5.69.7,5,.73,10.18,1.5,15.21,2.4,15.7,4.76,31.42,7.64,47,2.09,11.38.83,15.51-8.79,22.11-16.81,11.56-35.69,16.71-55.85,18-13.31.83-26.3-2.06-39.45-3.09a39.3,39.3,0,0,0-9.39.16c-7.48,1.24-10.31,6.18-8,13.49,2.48,8.05,7.5,14.31,14.07,19.36,11.1,8.52,24,12.22,37.7,13.2,13.49.95,26.64-.67,39.08-6.55a5,5,0,0,1,4.45.48,5.29,5.29,0,0,1,1.23,4.37,31.4,31.4,0,0,1-2.76,7.57c-14,28.29-36,47.59-65.73,58.08-18.66,6.58-37.25,5-55.63-1.26-6.95-2.37-13.74-5.22-20.61-7.83-1.37-.52-2.78-1-4.74-1.62v212a19.92,19.92,0,0,0,1.42-2.5c7.31-20.79,19.14-39.06,32.15-56.54a44.17,44.17,0,0,0,8.73-23.07c.9-10.57.66-21.26.49-31.9-.09-6.28-1-12.56-1.56-18.84-.25-2.76.14-5.21,3.29-6,2.53-.66,4.84,1,5.48,4.63a125.15,125.15,0,0,1,2.14,17.84c.34,10.77.1,21.56.1,32.76,1-1,2-1.81,2.83-2.74,3.24-3.54,6.15-7.46,9.75-10.6,6-5.21,7.92-11.91,8-19.29.13-11.41-.15-22.81-.22-34.22a53.78,53.78,0,0,1,.24-6.72c.29-2.46,1.61-4.29,4.35-4.27,2.5,0,3.75,1.68,4.18,4a28.9,28.9,0,0,1,.6,4.9c.1,10.65.13,21.31.18,32a11.14,11.14,0,0,0,.81,4.79c4.89-5.16,10-10.11,14.59-15.52,3.31-3.9,4.06-9,4.31-14,.41-8.54.64-17.09.94-25.64.05-1.5,0-3,0-4.5.18-3.8,1.66-5.76,4.29-5.81s4.62,1.88,4.67,5.58c.11,8.39-.23,16.79-.44,25.18,0,1.72-.29,3.44-.49,5.73,4.58-4.45,8.78-8.23,12.55-12.4,1-1.09,1-3.43.83-5.13-1.19-11.19-2.55-22.35-3.88-33.52-.27-2.24-.83-4.44-1-6.68s.57-4.57,3.32-5.14a4.07,4.07,0,0,1,5.12,3.27,127.69,127.69,0,0,1,2.86,14.08c1,7.24,1.53,14.54,2.33,22.41a28.32,28.32,0,0,0,2.53-2.08c2.86-3.08,5.56-6.31,8.52-9.29,10-10.11,14.19-22.68,15.48-36.45.36-3.88.32-7.79.48-11.68,0-1.05.05-2.11.17-3.15.41-3.8,2-5.78,4.53-5.63,3.56.2,4.38,2.94,4.5,5.71.17,4.34,0,8.69-.14,13,0,1.26-.21,2.51-.32,3.76l.84.37c2.63-3.92,5.37-7.77,7.87-11.78,8.9-14.28,8.55-9,7.44-28.44-.13-2.25-.71-4.61-.2-6.7.37-1.55,2-3.68,3.37-3.86s3.58,1.28,4.47,2.65c1.07,1.66,1.14,4,1.88,7,1.63-3.34,2.79-6.12,4.28-8.7,3.44-5.91,4-11.94,2-18.51-1.64-5.6-2.72-11.38-3.82-17.12a26.84,26.84,0,0,1-.35-7.16c.23-2.73,1.55-5.08,4.72-5s4.05,2.43,4.37,5.25c.59,5.18,1.38,10.33,2.09,15.49l1.31.13c1.19-4.3,2.5-8.58,3.56-12.92,1.28-5.24,2.35-10.54,3.53-15.81.6-2.72,1.86-4.88,5.06-4.67,2.61.18,4.2,2.53,3.46,6.22-2,10.13-4.42,20.19-6.7,30.27-.32,1.42-.82,2.79-1.23,4.18l.81.88c5.49-3.72,11.11-7.28,16.42-11.24,3.92-2.92,6.24-3.62,8.2-1.47s1.6,6.09-2.17,8.51c-7.92,5.08-16.24,9.55-24.48,14.11-1.57.86-2.88,1.33-3.81,3.22-6.07,12.38-12.39,24.64-18.69,36.9-1.21,2.35-2.74,4.54-4.7,7.74,4.23-.68,7.56-.8,10.61-1.79,8-2.58,15.81-5.53,23.7-8.35,1.27-.46,2.54-1.51,3.74-1.41,1.73.15,4.19.65,4.86,1.83s.19,4-.83,5.13a19.31,19.31,0,0,1-6.29,4.21,93.51,93.51,0,0,1-38.27,9c-1.83,0-3.34,0-4.63,1.83-5.53,8-11.26,15.94-16.9,23.9a15.64,15.64,0,0,0-1,2.13c8.36,0,16.24-.19,24.12.08a62.66,62.66,0,0,1,10.61,1.83,16.73,16.73,0,0,1,4.17,1.63c2.08,1.07,3.19,2.79,2.55,5.18s-2.55,3.23-4.87,3a31.81,31.81,0,0,1-4-.77,108.14,108.14,0,0,0-33.13-2c-5,.47-9.14,2.14-12.33,6.35-3,3.89-6.5,7.33-9.43,11.73,3.61-.41,7.22-1.07,10.84-1.18,8.24-.26,16.49-.27,24.74-.3a25.19,25.19,0,0,1,4.46.62c2.46.45,4.3,1.72,4.3,4.4,0,3-2.18,4.22-4.78,4.36-3,.16-6-.33-9-.16-11.36.65-22.74,1.18-34.06,2.31-6.1.6-11.22,3.7-15.4,8.44-4.32,4.9-9,9.45-13.42,14,8.47,0,16.82-.35,25.12.09,8.68.46,17.32,1.63,26,2.6a25.18,25.18,0,0,1,5.21,1.37c2.49.83,4.34,2.37,3.78,5.29s-2.89,3.63-5.52,3.3c-5.8-.72-11.58-1.76-17.4-2.29-14.06-1.29-28.14-2.16-42.19.45-5,.94-9.3,2.71-12.81,6.71-3.15,3.58-7,6.53-10.58,9.75.24.41.47.82.7,1.23a31.82,31.82,0,0,0,3.2.41c15.76.43,31.52.82,47.28,1.26,2.1.06,4.35-.07,6.22.67,1.41.56,3.26,2.4,3.22,3.62a6.16,6.16,0,0,1-3,4.26c-1.58.87-3.77.9-5.69.85-14.86-.42-29.76-.41-44.55-1.62-10.74-.88-19.62.8-25.82,10.39-1.36,2.1-3.22,3.87-5.45,6.51,5.51-.78,10.1-1.65,14.74-2,12.3-1,24.6-1.2,36.78,1.26a39.62,39.62,0,0,1,7.24,2.39c2.4,1,4.09,2.74,3.2,5.62s-3.33,3.16-5.87,2.77c-6.06-.95-12.09-2.47-18.18-2.83-13-.75-26.09-.66-38.93,2.67a25,25,0,0,0-14.42,9.83c-17.86,23.79-30.56,50.17-39.94,78.23-1.38,4.15-1.55,8.85-1.56,13.29q-.19,91.67-.18,183.32c0,2.1,0,4.2,0,6.3-.11,4-1.9,6.34-4.83,6.34a7.8,7.8,0,0,1-7.71-6.13c-1.63-9.75-2.79-19.63-5.26-29.16a327.79,327.79,0,0,0-50.25-108.47c-13.89-19.55-29.41-38-44.23-56.85C850.45,790.59,849.18,789.35,847.94,788Zm107-253V105.24L885.55,194.1c1.61.69,2.85,1.15,4,1.72,5.65,2.75,11.83,4.78,16.83,8.42,17.28,12.57,15.08,37.12-3.93,46.65-10,5-20.55,5.61-31.15,2.63-7.87-2.22-15.51-5.25-23.6-8a306.22,306.22,0,0,0-25.56,39.64c-1.77,3.32-1.51,6,.93,8.52,2.61,2.67,5.16,5.65,8.33,7.46a152.64,152.64,0,0,0,19.74,9.65c11.45,4.47,23.27,8,34.67,12.56a63.59,63.59,0,0,1,15.51,8.95c8.31,6.52,12.58,15.13,10.5,26.1-3.05,16.12-14.6,26.09-31.28,27.22-14.5,1-27.88-3.14-41.08-8.37-16.9-6.68-31.22-17.15-44.17-29.69a13.57,13.57,0,0,0-2-1.34,7.21,7.21,0,0,0-.57,1.13c-.51,2-1,4.08-1.47,6.12-4.79,20.91-7.26,42-4.3,63.43a13.58,13.58,0,0,0,5,9.08c12.78,10.88,28.09,13.41,43.94,12,9-.78,17.84-3.79,26.58-6.4a57.14,57.14,0,0,1,25.37-1.78c15.48,2.39,23.1,12.47,20.81,27.53a37.69,37.69,0,0,1-2.23,7.75c-6.26,16.09-18.28,25.49-35,28.41a226.25,226.25,0,0,1-29.54,2.78c-11,.46-22.1.1-33.3.1a8.17,8.17,0,0,0,.66,1.44c11.88,17,25.57,32.16,43.73,42.81,11.68,6.84,24,11.66,37.48,13.3,16.07,2,30-4.42,43.55-11.83C940.4,538.6,946.68,535.2,954.94,535Zm75-343.48-64-83.73-1,.4V536.82c10.74,4,21.55,8.5,32.7,11.95,13.85,4.28,28.06,5.17,42.13.67a110.82,110.82,0,0,0,41.38-23.93c7.79-7.13,13.28-16.11,18.51-25.39a17.37,17.37,0,0,0-4.45.65c-22.46,5.16-43.88,2.55-63.86-9.13-11-6.41-19-15.52-22.92-27.87-4.19-13.35,3.37-24.74,17.36-25.89a74.88,74.88,0,0,1,13.46.43c13.72,1.41,27.33,4,41.24,2.22,16.47-2.14,31.89-6.92,45.61-16.61,4.36-3.09,6-6.65,4.27-11.91-5-14.91-5.78-30.61-8.22-46-.68-4.34-1.13-8.72-1.77-13.7-2.63,1.66-4.63,2.95-6.67,4.17-10,6-19.93,12.28-30.16,17.93a88,88,0,0,1-31.35,10.68c-14.68,1.88-27.81-1.38-38.41-12.15-10.1-10.26-10.27-24.06-.7-34.82A40.58,40.58,0,0,1,1029,327.28c8.51-3.32,17.06-6.63,25.79-9.3a81.48,81.48,0,0,0,38.65-25.23c2.57-3,2.93-5.38,1.23-8.8a129.59,129.59,0,0,0-20.95-30.22c-2.91-3.16-6-6.17-9.05-9.3l-6.3,4.24a48.1,48.1,0,0,1-32.46,8.2c-14-1.38-23.77-8.15-29.76-20.82-4.39-9.28-3.24-17.73,3-25.67a47.14,47.14,0,0,1,18.51-13.95C1021.44,194.74,1025.38,193.3,1030,191.47ZM765.88,702.39c-2.55-2.44-4.38-4.17-6.18-5.94q-44-43-87.89-86c-3.86-3.78-7.57-7.71-11.26-11.66-1.79-1.93-2.46-4.2-.57-6.48,1.62-2,4.16-1.87,6.75.44,3.92,3.49,7.72,7.13,11.48,10.8q43.63,42.66,87.25,85.35c1.22,1.19,2.51,2.32,3.77,3.48a97.75,97.75,0,0,0-.28-14.71c-2-29.57-.38-59.1,1.26-88.63.26-4.79,2.26-7.33,5.23-7.09s4.53,2.9,4.31,7.71c-.68,14.24-1.56,28.47-2.06,42.72-.81,22.83-.16,45.62,3.18,68.25a12.71,12.71,0,0,0,3.33,6.48c17.07,17.74,34.3,35.34,51.48,53,.81.83,1.68,1.6,2.88,2.73a15.34,15.34,0,0,0,.62-2.46c1.33-23.82,3.26-47.63,3.78-71.47.66-30.3.15-60.64.18-91,0-3.92.06-7.9,5.28-10a157.38,157.38,0,0,0-39.21-6.78c-27.51-1.12-54.92.86-82.32,3-19.15,1.49-38.32,2.72-57.5,3.84-6.35.37-12.74.06-19.36.06,2.82,16.67,2.26,32.86,1.94,49.07-.52,26.55-1.08,53.11-.9,79.67.12,19.25,2.34,38.34,9.08,56.62.55,1.5,1.21,3,1.52,3.73,58-2.71,115.29-3.31,173.19-3.87-2.38-2.62-4.33-4.88-6.4-7-15-15.53-30.17-31-45.09-46.61a20.71,20.71,0,0,0-13.69-6.91c-16.58-1.92-33.17-3.55-49.85-2.82-19.63.86-39.24,2.32-58.86,3.5-5.14.31-7.23-.75-7.48-3.63s1.69-4.43,6.7-4.93c8.22-.83,16.46-1.37,24.65-2.32a329.51,329.51,0,0,1,55.29-1.82C748.35,701.07,756.56,701.75,765.88,702.39Zm86-113.48c.28,4.07.74,7.56.72,11.05-.07,12.6-.42,25.21-.45,37.82,0,20.71.66,41.44,0,62.13-.76,23.54-2.68,47-4.11,70.55-.3,4.94,2.43,7.39,7.29,6.5a46.88,46.88,0,0,0,5.31-1c29.77-9,52.19-26.37,63.91-56A118.41,118.41,0,0,0,932.66,675c-.14-19.35-5.65-36.6-19.91-50.49C895.37,607.62,874.35,597.11,851.89,588.91ZM665.61,786.69a164.91,164.91,0,0,0,27.45,40.79c8.28,9,17.6,16.84,28.79,22,23.43,10.83,47.5,11.49,71.92,3.78q25.23-8,36-32.25c5.32-11.92,7.43-24.45,8.64-37.26C826.19,782.12,672.13,784.6,665.61,786.69Z"/><path d="M999.58,969.07c6.85-5.36,13.85-10.53,20.51-16.11,36.47-30.56,69.24-64.81,100-101.06,24.37-28.74,48.81-57.41,70.57-88.25,24.7-35,41-73.82,52.69-114.78,1.1-3.88,1.53-8,2.28-11.93,1.25-6.69,5.77-8.38,10.89-3.83,9.4,8.34,15,19.12,18,31.08,4.75,18.46,5.55,37.37,5.24,56.31-.41,25.5-4.69,50.34-16,73.3-17.5,35.38-37.79,68.92-66.89,96.4-34.24,32.32-74.59,53.65-119.25,67.35-24.51,7.53-49.25,14.35-72.87,24.51-5.65,2.43-11.3,4.9-17.1,6.9-4.48,1.54-5.54.29-7.73-4-5.46-10.64-5.55-22-4.94-33.39,1.84-34.17,9.83-66.89,22.49-98.71,13.27-33.32,32.22-62.94,55.29-90.15,25-29.42,50.31-58.51,74.78-88.34,26.38-32.18,50-66.42,72.67-101.3,4-6.15,7.29-12.77,10.92-19.16.74-1.3,1.23-3,2.36-3.75,1.5-.95,3.66-1.75,5.25-1.38a5.21,5.21,0,0,1,3.14,3.7c.92,10,1.37,20,2.2,30,2,24.48-3.71,47.72-11.13,70.67-22.34,69-57.27,131-105.38,185.35-22.69,25.63-46,50.69-69,76.08-13.72,15.18-25.72,31.69-36.91,48.79-1,1.6-2,3.25-3,4.88ZM984,955.91l.84.11q1.38-4.44,2.77-8.86c6.7-21.31,18.66-39.84,30.88-58.23,14.66-22.07,32.14-41.92,49.34-61.95A758,758,0,0,0,1154,704.07c21.17-37.7,36.6-77.84,51-118.45a10.2,10.2,0,0,0,0-2.13c-1.29,1.86-2.2,3.13-3.07,4.42-27.06,40.07-55.05,79.43-86.57,116.19-21.69,25.29-43.55,50.44-64.57,76.29-37.13,45.66-58.1,98.28-65.18,156.55C984.83,943.23,984.53,949.58,984,955.91Zm.38,17.25c1.14-.91,1.45-1,1.58-1.28,12.68-23.52,28.71-44.67,46.47-64.51,21.12-23.59,42.77-46.71,63.92-70.28A513.69,513.69,0,0,0,1201.06,659c9.31-27.14,16.55-54.6,13.29-83.73-.19-1.64-.29-3.29-.43-4.93-4,9.71-7.15,19.33-10.54,28.89-16.81,47.34-37.22,92.92-63.93,135.67-22.42,35.89-48,69.3-75.51,101.34-20,23.37-39.37,47.25-55.41,73.68A196.77,196.77,0,0,0,985,967.59,51.18,51.18,0,0,0,984.39,973.16Zm267-313.4-1-.12c-.48,1.39-1,2.78-1.43,4.18-11.71,35.13-25.83,69.1-46.94,99.85-18.38,26.78-39,51.76-59.78,76.67-35.42,42.49-72.58,83.3-115,119a12.27,12.27,0,0,0-1.19,1.39c8.48-3.78,16.58-7.91,24.65-12.11,18-9.35,36.39-17.88,53.73-28.26,61.89-37,103.22-90.51,124.84-159.24,7.71-24.5,12.64-49.68,17.42-74.87C1248.37,677.44,1249.86,668.6,1251.43,659.76Zm5.84-12.82-1.12.34c-.13.68-.3,1.36-.4,2.05a783.4,783.4,0,0,1-19.92,100.09c-11.11,41-29.2,78.7-56.6,111.49s-61.25,57.7-99.42,76.79q-18.91,9.45-37.87,18.83c-1.33.67-2.62,1.44-3.93,2.16,13.56-3.19,26.81-6.94,39.93-11.12,41.41-13.19,79-33.14,111.07-62.93,24.81-23,42.56-51,58.82-80.24,8.61-15.45,15.14-31.64,18.7-49,4.75-23.18,4.83-46.55,2-69.9-1.08-9-3.37-17.94-5.72-26.75C1261.75,654.63,1259.18,650.88,1257.27,646.94Z"/><path d="M778.13,881.92c25.75.59,51.19,3.27,75.59,12.26C882,904.57,904,922.51,919.2,948.52c5.81,10,10.76,20.42,15.87,30.77,1.49,3,2.94,6.44.52,9.8-2.13,3-5.09,3.66-8.69,3.49-26.47-1.25-51.87-7.3-76.75-16.18-46.77-16.69-87.5-43.25-124.78-75.53a44.8,44.8,0,0,1-5.64-5.8c-3.36-4.18-2.21-7.09,2.93-8.46,13.16-3.52,26.7-3.8,40.16-4.64C767.91,881.65,773,881.92,778.13,881.92Zm146.22,97.59a15.53,15.53,0,0,0-.63-2.33c-3.86-7.46-7.5-15-11.67-22.32-14.47-25.26-35.53-42.8-63-52.29-34.45-11.9-70-12.94-105.89-10-.24,0-.46.3-.58.38C806.48,914.13,868,940.64,924.35,979.51Zm-190.81-84.4C788.17,942.28,849.33,975.3,923,983.59,902.8,961.2,770.29,899.31,733.54,895.11Z"/><path d="M746.68,491.45c16.92,1.36,28.25,10.79,36.69,24.2,4.23,6.71,7.93,13.77,11.61,20.81,2,3.9,1.35,5.86-2.42,7C780,547.35,767.24,550,754,547.78c-10.34-1.72-19.18-6.66-27-13.76a13,13,0,0,0-2,1c-13.11,10.15-28.33,11.43-44,10.32a112.53,112.53,0,0,1-13.3-2.23c-4.45-.84-5.53-2.75-3.64-7,7-15.68,18.66-33.57,40.09-45-.71-4-1.47-8.09-2.13-12.19a39.42,39.42,0,0,1,4.34-26.14c4.46-8,9.37-15.71,14.14-23.51a15.31,15.31,0,0,1,2.65-3c1.81-1.64,3.87-1.95,5.54.05,10.3,12.39,20.49,24.86,22.32,41.78a35.8,35.8,0,0,1-2.65,18.93C747.74,488.4,747.3,489.79,746.68,491.45Zm40.89,46.18c-5.43-11-11-21.31-19.65-29.7-4.87-4.73-10.69-7.49-17.17-9.31-5.86-1.64-12.77.56-17.68,8.33a26.3,26.3,0,0,1,3.45,2c7.15,5.65,14.3,11.28,21.28,17.13.94.79.91,2.73,1.33,4.14a16.74,16.74,0,0,1-3.56-1.88c-4.17-3.64-8.05-7.64-12.38-11.07-3.68-2.92-7.84-5.25-12.3-8.19-.72,2.63-1.25,4.31-1.63,6-2.3,10.11-1.61,11.88,7,17.88C752.29,544.32,769.54,542.3,787.57,537.63Zm-62.09-40.85c5.52.81,9.13.1,11-2.73,5.58-8.32,8.83-17.18,7.07-27.56-2-11.88-8.9-21.13-15.41-30.66-.65-.95-1.18-2-1.77-3-5.09,7.36-8.89,14.15-12.73,20.92-6.55,11.56-6.13,23.52-2,35.66,1.55,4.58,4.94,6.56,10.22,6.33a3.74,3.74,0,0,0,.13-.86c-1.55-11.76,0-23.33,2.17-34.86.29-1.55.34-3.79,3.71-3.13C726,470.2,722.77,483.4,725.48,496.78ZM671.36,537c10.11,2.62,19.48,2.21,28.84.76,6.57-1,12.85-2.83,18.36-6.83,2.86-2.09,4.79-4.79,5-8.16.32-5.4-.2-10.77-3.73-15.64a28.85,28.85,0,0,0-17.37,15.29c-.67,1.38-1.57,2.65-2.37,4l-1.57-1.14c1.88-10.93,10.26-16.46,19.37-21.2-4.21-8-10.56-7.28-16.5-3.42C687.8,509.44,678.87,522.24,671.36,537Z"/></svg>