<svg id="Layer_3" data-name="Layer 3" xmlns="http://www.w3.org/2000/svg" style="fill:#7A5B47" viewBox="0 0 1920 1080"><defs><style>.cls-1{font-size:313px;font-family:BirthstoneBounce-Regular, Birthstone Bounce;}.cls-2{font-size:84.2px;font-family:Montserrat-Regular, Montserrat;letter-spacing:0.03em;}.cls-3{letter-spacing:0.04em;}.cls-4{letter-spacing:0.04em;}.cls-5{letter-spacing:0.04em;}</style></defs><path d="M917.42,405.54c-.67,3.37-1.23,6.53-2,9.64a29.73,29.73,0,0,1-1.63,4.55,25.76,25.76,0,0,1-16.24,15.21,42.44,42.44,0,0,1-30.69-.87,39.65,39.65,0,0,1-14.3-10.61c-9.88-11.11-15.84-23.93-17-38.9a268.81,268.81,0,0,1-.41-27.81c.22-8.25.39-16.51.41-24.77a50.5,50.5,0,0,0-.86-6.54,7.62,7.62,0,0,1-.07-2.13,1.58,1.58,0,0,1,1.92-1.44c8.7,1.09,17.31-.26,25.95-.88,13-.92,26-2.27,39.08-1.73,14.35.6,27.23,5.47,38.84,13.8a51.23,51.23,0,0,1,5.94,5.19c5.53,5.42,8,12.22,8.5,19.82a49.9,49.9,0,0,1-4.14,23.45c-4.4,9.91-11.81,16.69-21.71,20.86-2.23.94-4.55,1.69-7,2.58,8.05,9.59,15.93,19.28,22.38,30a145.14,145.14,0,0,1,15,34l.41-.08V308.37a8.67,8.67,0,0,0-4.81,1.5c-6.74,4.13-13.79,7.24-22,6a43.43,43.43,0,0,1-15.25-5.56c-9-5.24-15.5-12.86-20.64-21.75-.53-.9-1.06-2-.16-2.79a3.78,3.78,0,0,1,2.6-.64,107.2,107.2,0,0,0,25.94-.51c6.63-1,11-5,12.34-11,.87-3.87-.53-6.17-4.38-7a16.51,16.51,0,0,0-8.68.33c-4.44,1.45-8.88,3.14-13.62,2.91a56.3,56.3,0,0,1-10.26-1.41c-4.34-1-7.71-3.77-10.44-7.23a5.83,5.83,0,0,1-1.11-2.77c-1.41-11.13.24-21.94,3.57-32.56.65-2.07,2.19-2.22,4-.57,2.24,2.07,4.49,4.13,6.86,6a48.94,48.94,0,0,0,18.88,9.21,19.79,19.79,0,0,0,10.47.18,8.82,8.82,0,0,0,6.06-9.79,6.94,6.94,0,0,0-3.14-4.44,28.66,28.66,0,0,0-5.5-3c-5.08-1.95-10.25-3.65-15.35-5.55a25.29,25.29,0,0,1-9.77-6.19c-2.9-3.07-3.21-5.3-1.28-9.07,3.18-6.23,7.42-11.72,11.72-17.17.89-1.12,1.49-1,2.93-.14a23.29,23.29,0,0,0,15.39,3.62,9.79,9.79,0,0,0,2.59-.72c2.61-1.12,4.75-2.79,4.83-5.88a7.4,7.4,0,0,0-3.94-7.17c-2.42-1.27-5.05-2.15-7.59-3.19-1.52-.62-2.26-1.62-2-3.15a4.32,4.32,0,0,1,.93-1.88q10.74-13.82,21.53-27.61l8.4-10.75c.33-.43.65-.86,1-1.27,1.44-1.63,2.8-1.61,4.14.12,2.86,3.7,5.68,7.41,8.52,11.12q10.79,14.13,21.59,28.25a8.92,8.92,0,0,1,.73,1,1.81,1.81,0,0,1-1.43,2.88A19.71,19.71,0,0,0,981,177.25c-2.09,2.31-2.27,4.29-.83,7.07,2.59,5,8.44,7.21,14.5,5.24a32.46,32.46,0,0,0,5.12-2.53c.74-.39,1.37-1,2.09-1.4,1.89-1.11,2.53-1,4.12.47,4,3.79,7.9,7.68,10.73,12.48,1.19,2,2.2,4.1,3.23,6.19a3.72,3.72,0,0,1-.61,4.32c-4.42,5.45-9.63,9.78-16.42,12-3.69,1.21-7.38,2.45-11,3.92a19,19,0,0,0-5.19,3.11c-3.33,2.89-3.26,6.85,0,9.81,3.68,3.34,8.06,3.91,12.77,3.08a32.39,32.39,0,0,0,9.92-3.57c3.46-1.9,6.83-4,10.22-6,2-1.16,3.84-2.45,5.83-3.54,2.5-1.37,4-.61,4.35,2.27.28,2,.29,4.06.6,6.06,1,6.26,1.9,12.53,3,18.76.84,4.53.34,6.18-3.5,8.81-6.7,4.61-14.22,6.66-22.26,7.16-5.31.33-10.49-.82-15.73-1.23a15.59,15.59,0,0,0-3.74.06c-3,.5-4.11,2.47-3.21,5.38a15.38,15.38,0,0,0,5.61,7.72,27.11,27.11,0,0,0,15,5.26,30.72,30.72,0,0,0,15.58-2.61,2,2,0,0,1,1.78.19,2.13,2.13,0,0,1,.49,1.74,12.57,12.57,0,0,1-1.1,3,44.83,44.83,0,0,1-26.21,23.16c-7.43,2.62-14.84,2-22.17-.51-2.77-.94-5.48-2.08-8.21-3.12-.55-.21-1.11-.38-1.9-.64v84.5a6.81,6.81,0,0,0,.57-1c2.91-8.29,7.63-15.57,12.82-22.54a17.56,17.56,0,0,0,3.47-9.19,125.46,125.46,0,0,0,.2-12.72c0-2.51-.39-5-.62-7.51-.1-1.1.06-2.08,1.31-2.41,1-.26,1.93.39,2.19,1.85a50.16,50.16,0,0,1,.85,7.11c.13,4.3,0,8.6,0,13.06.4-.39.79-.72,1.13-1.09a53.72,53.72,0,0,1,3.88-4.23,9.68,9.68,0,0,0,3.19-7.69c.06-4.54,0-9.09-.08-13.64a20,20,0,0,1,.09-2.68,1.7,1.7,0,0,1,3.4-.12,11.81,11.81,0,0,1,.24,1.95c0,4.25,0,8.5.07,12.75a4.57,4.57,0,0,0,.32,1.91c1.95-2.06,4-4,5.82-6.19a9,9,0,0,0,1.72-5.57c.16-3.4.26-6.81.37-10.22,0-.6,0-1.2,0-1.8.07-1.51.66-2.29,1.71-2.31s1.84.75,1.86,2.22c0,3.35-.09,6.69-.17,10,0,.69-.12,1.37-.2,2.29,1.83-1.78,3.5-3.28,5-4.95a2.92,2.92,0,0,0,.34-2c-.48-4.46-1-8.91-1.55-13.37-.11-.89-.33-1.77-.38-2.66s.22-1.82,1.32-2a1.62,1.62,0,0,1,2,1.31A51.14,51.14,0,0,1,1016,318c.39,2.89.61,5.8.93,8.93a10.48,10.48,0,0,0,1-.83c1.14-1.22,2.22-2.51,3.4-3.7,4-4,5.65-9,6.17-14.53.14-1.55.13-3.11.19-4.66,0-.42,0-.84.06-1.25.17-1.52.78-2.31,1.81-2.25,1.42.08,1.75,1.18,1.79,2.28.07,1.73,0,3.46,0,5.2,0,.5-.09,1-.13,1.5l.33.15c1-1.57,2.15-3.1,3.14-4.7,3.55-5.69,3.41-3.6,3-11.34a9.63,9.63,0,0,1-.08-2.67c.15-.62.81-1.47,1.34-1.54a2.32,2.32,0,0,1,1.78,1.06,10.2,10.2,0,0,1,.76,2.79c.64-1.33,1.1-2.44,1.7-3.47a8.93,8.93,0,0,0,.81-7.38c-.66-2.23-1.09-4.54-1.53-6.83a10.44,10.44,0,0,1-.13-2.85c.09-1.09.61-2,1.87-2s1.62,1,1.75,2.09c.23,2.07.55,4.12.83,6.18l.52.05c.48-1.72,1-3.42,1.42-5.15.51-2.09.94-4.2,1.41-6.3.24-1.09.74-1.95,2-1.87,1,.07,1.67,1,1.38,2.48-.82,4-1.77,8.05-2.68,12.07-.12.56-.32,1.11-.49,1.67l.33.35c2.19-1.49,4.43-2.9,6.54-4.48,1.56-1.17,2.49-1.45,3.27-.59s.64,2.43-.86,3.39c-3.16,2-6.48,3.81-9.76,5.63a2.82,2.82,0,0,0-1.52,1.28c-2.42,4.94-4.94,9.82-7.45,14.71-.49.94-1.1,1.81-1.88,3.09a29.26,29.26,0,0,0,4.23-.72c3.18-1,6.31-2.2,9.45-3.33.51-.18,1-.6,1.49-.56.69.06,1.67.26,1.94.73a2.23,2.23,0,0,1-.33,2,7.63,7.63,0,0,1-2.51,1.68A37.27,37.27,0,0,1,1038,308c-.73,0-1.34,0-1.85.73-2.2,3.2-4.49,6.35-6.74,9.52a6.93,6.93,0,0,0-.41.85c3.33,0,6.47-.07,9.61,0a25.92,25.92,0,0,1,4.24.72,7.34,7.34,0,0,1,1.66.65,1.69,1.69,0,0,1,1,2.07,1.63,1.63,0,0,1-1.94,1.21,14.64,14.64,0,0,1-1.58-.3,42.74,42.74,0,0,0-13.2-.82,6.46,6.46,0,0,0-4.92,2.53c-1.18,1.55-2.59,2.92-3.76,4.67,1.44-.16,2.88-.42,4.32-.47,3.29-.1,6.58-.1,9.87-.11a9,9,0,0,1,1.77.24c1,.18,1.72.69,1.72,1.76s-.87,1.68-1.91,1.73c-1.19.07-2.39-.13-3.58-.06-4.53.26-9.07.47-13.58.92a9.36,9.36,0,0,0-6.14,3.37c-1.72,2-3.6,3.76-5.35,5.57,3.38,0,6.7-.14,10,0s6.9.65,10.35,1a10,10,0,0,1,2.07.55c1,.33,1.74,1,1.51,2.11s-1.15,1.45-2.2,1.32c-2.31-.29-4.61-.71-6.93-.92-5.61-.51-11.22-.86-16.83.18a8.42,8.42,0,0,0-5.1,2.68,50.13,50.13,0,0,1-4.22,3.88l.28.5c.43.05.85.15,1.28.16,6.28.17,12.56.32,18.85.5a7.28,7.28,0,0,1,2.48.27c.56.22,1.29.95,1.28,1.44a2.46,2.46,0,0,1-1.19,1.7,4.63,4.63,0,0,1-2.27.34c-5.92-.17-11.86-.17-17.76-.65-4.28-.35-7.82.32-10.29,4.14a30,30,0,0,1-2.17,2.6c2.19-.31,4-.66,5.87-.81a52.28,52.28,0,0,1,14.67.5,15.67,15.67,0,0,1,2.88,1c1,.4,1.63,1.1,1.27,2.25s-1.32,1.26-2.34,1.1c-2.41-.38-4.81-1-7.24-1.13A50,50,0,0,0,986,368.57a10,10,0,0,0-5.75,3.92,108.75,108.75,0,0,0-15.92,31.19,17,17,0,0,0-.62,5.3q-.09,36.54-.07,73.08c0,.83,0,1.67,0,2.51,0,1.6-.76,2.52-1.92,2.52a3.12,3.12,0,0,1-3.08-2.44c-.65-3.88-1.11-7.82-2.09-11.62a130.77,130.77,0,0,0-20-43.24c-5.54-7.8-11.73-15.13-17.64-22.66C918.42,406.57,917.91,406.08,917.42,405.54Zm42.66-100.88V133.36l-27.67,35.43c.65.27,1.14.45,1.61.68,2.25,1.1,4.72,1.91,6.71,3.36a10.71,10.71,0,0,1-1.57,18.59,16.76,16.76,0,0,1-12.41,1.05c-3.14-.88-6.19-2.09-9.41-3.2a122.24,122.24,0,0,0-10.19,15.8,2.6,2.6,0,0,0,.37,3.4,16.61,16.61,0,0,0,3.32,3,59.66,59.66,0,0,0,7.87,3.85c4.56,1.79,9.27,3.19,13.82,5a25.38,25.38,0,0,1,6.18,3.57c3.32,2.6,5,6,4.19,10.4-1.22,6.43-5.82,10.4-12.47,10.85-5.78.39-11.11-1.25-16.38-3.33A54.06,54.06,0,0,1,896.44,230a4.72,4.72,0,0,0-.81-.53,3.18,3.18,0,0,0-.23.45c-.2.81-.4,1.62-.58,2.44-1.91,8.33-2.89,16.72-1.72,25.28a5.45,5.45,0,0,0,2,3.62c5.1,4.34,11.2,5.35,17.52,4.8,3.58-.32,7.11-1.52,10.59-2.55a22.69,22.69,0,0,1,10.12-.71c6.16.95,9.2,5,8.29,11a14.55,14.55,0,0,1-.89,3.09,17.32,17.32,0,0,1-14,11.33,89.11,89.11,0,0,1-11.77,1.1c-4.4.19-8.81.05-13.27.05a3.1,3.1,0,0,0,.26.57c4.73,6.78,10.19,12.82,17.43,17.06a38.71,38.71,0,0,0,14.94,5.31c6.41.78,12-1.77,17.36-4.72C954.28,306.12,956.79,304.76,960.08,304.66ZM990,167.74l-25.53-33.38-.39.16V305.41c4.28,1.58,8.59,3.39,13,4.76a27.5,27.5,0,0,0,16.79.27,44.18,44.18,0,0,0,16.5-9.54c3.1-2.84,5.29-6.42,7.38-10.12a7.07,7.07,0,0,0-1.78.26,33.75,33.75,0,0,1-25.45-3.64,19.41,19.41,0,0,1-9.14-11.11c-1.67-5.32,1.34-9.86,6.92-10.32a29.13,29.13,0,0,1,5.36.17c5.47.56,10.9,1.61,16.45.88a39.47,39.47,0,0,0,18.18-6.62c1.74-1.23,2.4-2.65,1.7-4.75-2-5.94-2.31-12.2-3.28-18.33-.27-1.73-.45-3.48-.7-5.46-1,.66-1.85,1.17-2.66,1.66-4,2.4-8,4.89-12,7.15a35.12,35.12,0,0,1-12.49,4.25c-5.85.75-11.09-.55-15.31-4.84-4-4.09-4.1-9.59-.28-13.88a16,16,0,0,1,6.31-4.32c3.39-1.33,6.8-2.65,10.28-3.71a32.44,32.44,0,0,0,15.41-10.06,2.76,2.76,0,0,0,.49-3.5,51.8,51.8,0,0,0-8.35-12.05c-1.16-1.26-2.39-2.46-3.61-3.71l-2.51,1.69a19.17,19.17,0,0,1-12.94,3.27,13.72,13.72,0,0,1-11.87-8.3,9.09,9.09,0,0,1,1.2-10.23,18.84,18.84,0,0,1,7.38-5.57C986.59,169,988.16,168.47,990,167.74ZM884.71,371.41c-1-1-1.75-1.66-2.47-2.36l-35-34.28c-1.54-1.51-3-3.08-4.49-4.65a1.79,1.79,0,0,1-.23-2.58c.65-.78,1.66-.75,2.69.17,1.57,1.39,3.08,2.84,4.58,4.3l34.78,34c.49.47,1,.92,1.5,1.39a37.89,37.89,0,0,0-.11-5.87c-.8-11.79-.15-23.56.5-35.33.11-1.91.91-2.92,2.09-2.83s1.81,1.16,1.72,3.08c-.27,5.67-.62,11.35-.82,17a149,149,0,0,0,1.26,27.2A5.08,5.08,0,0,0,892,373.3q10.22,10.6,20.53,21.11c.32.33.67.64,1.14,1.09a5.19,5.19,0,0,0,.25-1c.53-9.5,1.3-19,1.51-28.49.26-12.08.06-24.17.07-36.26,0-1.56,0-3.15,2.1-4a63,63,0,0,0-15.63-2.7c-11-.44-21.89.34-32.81,1.19-7.64.6-15.28,1.09-22.93,1.54-2.53.14-5.08,0-7.71,0,1.12,6.64.9,13.1.77,19.56-.21,10.58-.43,21.17-.36,31.76a65.77,65.77,0,0,0,3.62,22.57c.22.6.48,1.18.61,1.49,23.1-1.08,46-1.32,69-1.55-1-1-1.73-1.94-2.56-2.8-6-6.19-12-12.34-18-18.58a8.25,8.25,0,0,0-5.45-2.75,124.88,124.88,0,0,0-19.88-1.13c-7.82.35-15.64.93-23.46,1.4-2,.12-2.88-.3-3-1.45s.67-1.77,2.67-2c3.27-.32,6.56-.54,9.82-.92a130.92,130.92,0,0,1,22-.72C877.72,370.89,881,371.16,884.71,371.41ZM919,326.17c.11,1.63.29,3,.28,4.41,0,5-.17,10.05-.18,15.08,0,8.25.27,16.52,0,24.76-.3,9.39-1.07,18.76-1.64,28.13-.12,2,1,2.94,2.91,2.59a20.67,20.67,0,0,0,2.11-.39c11.87-3.6,20.81-10.51,25.48-22.34a47.33,47.33,0,0,0,3.24-17.9c-.06-7.72-2.26-14.59-7.94-20.13C936.33,333.63,928,329.44,919,326.17ZM844.74,405a65.45,65.45,0,0,0,10.94,16.26,36.59,36.59,0,0,0,11.48,8.77c9.34,4.32,18.93,4.58,28.67,1.51a22.51,22.51,0,0,0,14.36-12.86,46.45,46.45,0,0,0,3.44-14.85C908.75,403.2,847.33,404.18,844.74,405Z"/><path d="M977.87,477.73c2.73-2.14,5.52-4.2,8.18-6.43A332.5,332.5,0,0,0,1025.9,431c9.72-11.46,19.46-22.89,28.13-35.19,9.85-13.95,16.36-29.42,21-45.75.44-1.55.61-3.17.91-4.76.5-2.66,2.3-3.34,4.34-1.53a24.14,24.14,0,0,1,7.19,12.4c1.89,7.35,2.21,14.89,2.09,22.44-.17,10.17-1.87,20.07-6.4,29.22-7,14.11-15.06,27.48-26.67,38.43-13.64,12.89-29.73,21.39-47.53,26.85-9.78,3-19.64,5.72-29.05,9.77-2.26,1-4.51,2-6.82,2.75-1.79.62-2.21.12-3.08-1.59-2.18-4.23-2.21-8.77-2-13.31a123.59,123.59,0,0,1,9-39.34,129.28,129.28,0,0,1,22-35.94c9.94-11.73,20.05-23.33,29.81-35.22a453.15,453.15,0,0,0,29-40.38c1.59-2.45,2.9-5.09,4.35-7.64.29-.52.49-1.21.94-1.49a3.15,3.15,0,0,1,2.09-.56,2.08,2.08,0,0,1,1.25,1.48c.37,4,.55,8,.88,12,.82,9.76-1.47,19-4.43,28.18a205.86,205.86,0,0,1-42,73.88c-9,10.22-18.33,20.21-27.48,30.33a155.53,155.53,0,0,0-14.72,19.46c-.41.63-.79,1.29-1.18,1.94Zm-6.2-5.25.33,0,1.1-3.53c2.68-8.5,7.44-15.88,12.31-23.21,5.85-8.8,12.82-16.71,19.67-24.7a302.47,302.47,0,0,0,34.35-49c8.44-15,14.59-31,20.32-47.22a3.93,3.93,0,0,0,0-.84c-.52.73-.88,1.24-1.23,1.76-10.79,16-21.94,31.66-34.51,46.31-8.65,10.09-17.36,20.11-25.74,30.42-14.8,18.2-23.16,39.18-26,62.41C972,467.42,971.87,470,971.67,472.48Zm.15,6.88c.45-.37.58-.42.63-.51A134.07,134.07,0,0,1,991,453.13c8.42-9.41,17-18.62,25.48-28a204.83,204.83,0,0,0,41.74-71c3.71-10.82,6.6-21.77,5.3-33.38-.08-.65-.12-1.31-.17-2-1.58,3.87-2.85,7.71-4.2,11.52-6.7,18.87-14.84,37-25.49,54.09a335.15,335.15,0,0,1-30.1,40.4c-8,9.31-15.7,18.83-22.09,29.36a78.82,78.82,0,0,0-9.38,23A21.76,21.76,0,0,0,971.82,479.36Zm106.45-124.94-.4-.05c-.19.56-.39,1.11-.57,1.67-4.67,14-10.3,27.54-18.71,39.8-7.33,10.68-15.56,20.64-23.84,30.57-14.12,16.93-28.93,33.2-45.85,47.44a5,5,0,0,0-.47.55c3.38-1.5,6.61-3.15,9.82-4.83,7.16-3.72,14.51-7.12,21.43-11.26,24.67-14.76,41.14-36.08,49.76-63.48,3.07-9.77,5-19.8,6.94-29.85C1077.05,361.47,1077.64,357.94,1078.27,354.42Zm2.33-5.11-.45.13c-.05.28-.12.55-.16.82a310.83,310.83,0,0,1-7.94,39.9c-4.43,16.36-11.64,31.38-22.56,44.45s-24.42,23-39.63,30.61l-15.1,7.51c-.53.26-1,.57-1.57.86,5.41-1.28,10.69-2.77,15.92-4.44,16.51-5.26,31.48-13.21,44.28-25.08,9.89-9.18,17-20.34,23.45-32a68.18,68.18,0,0,0,7.45-19.53,86.57,86.57,0,0,0,.82-27.86,78.11,78.11,0,0,0-2.28-10.66A28.56,28.56,0,0,0,1080.6,349.31Z"/><path d="M889.59,443c10.27.24,20.41,1.31,30.14,4.89a48.77,48.77,0,0,1,26.1,21.66c2.32,4,4.29,8.14,6.32,12.27.6,1.2,1.18,2.56.22,3.91a3.65,3.65,0,0,1-3.47,1.39,105.6,105.6,0,0,1-30.6-6.46c-18.64-6.65-34.88-17.23-49.74-30.1a18.18,18.18,0,0,1-2.25-2.31c-1.34-1.67-.88-2.83,1.17-3.38,5.25-1.4,10.64-1.51,16-1.85C885.52,442.87,887.56,443,889.59,443Zm58.29,38.91a5.67,5.67,0,0,0-.25-.93c-1.54-3-3-6-4.65-8.9a45.12,45.12,0,0,0-25.13-20.85c-13.73-4.74-27.9-5.15-42.21-4-.1,0-.18.11-.23.15C900.89,455.82,925.4,466.39,947.88,481.89Zm-76.06-33.65c21.77,18.81,46.16,32,75.5,35.27C939.29,474.59,886.47,449.92,871.82,448.24Z"/><path d="M877.05,287.32c6.75.55,11.27,4.3,14.63,9.65,1.69,2.68,3.16,5.49,4.63,8.29.81,1.56.54,2.34-1,2.81-5,1.54-10.1,2.58-15.37,1.71a21.18,21.18,0,0,1-10.78-5.49,4.77,4.77,0,0,0-.78.42c-5.23,4-11.3,4.55-17.56,4.11a45.79,45.79,0,0,1-5.3-.89c-1.78-.34-2.21-1.1-1.45-2.79,2.79-6.24,7.44-13.38,16-17.92-.28-1.6-.59-3.23-.85-4.86A15.71,15.71,0,0,1,861,271.94c1.78-3.18,3.73-6.26,5.64-9.37a5.75,5.75,0,0,1,1-1.21,1.39,1.39,0,0,1,2.21,0c4.11,4.94,8.17,9.9,8.9,16.65a14.27,14.27,0,0,1-1.06,7.55C877.48,286.11,877.3,286.66,877.05,287.32Zm16.31,18.41c-2.17-4.37-4.39-8.49-7.84-11.84a15.58,15.58,0,0,0-6.84-3.71c-2.34-.65-5.09.22-7,3.32a13.48,13.48,0,0,1,1.38.81c2.84,2.26,5.7,4.5,8.48,6.83.37.32.36,1.09.53,1.66a6.64,6.64,0,0,1-1.42-.76c-1.66-1.45-3.21-3-4.94-4.41-1.47-1.16-3.12-2.09-4.9-3.26-.29,1-.5,1.72-.65,2.4-.92,4-.64,4.73,2.77,7.13C879.29,308.4,886.17,307.59,893.36,305.73ZM868.6,289.45c2.21.32,3.64,0,4.4-1.09,2.22-3.32,3.52-6.85,2.82-11-.81-4.73-3.55-8.42-6.14-12.22-.26-.38-.48-.79-.71-1.18-2,2.93-3.54,5.64-5.07,8.34-2.61,4.6-2.45,9.37-.82,14.21.62,1.83,2,2.62,4.08,2.52a2,2,0,0,0,.05-.34,43.8,43.8,0,0,1,.86-13.89c.12-.62.14-1.52,1.48-1.25C868.81,278.85,867.52,284.12,868.6,289.45Zm-21.57,16a27.66,27.66,0,0,0,11.5.3,16.19,16.19,0,0,0,7.31-2.72,4.37,4.37,0,0,0,2-3.26,9.13,9.13,0,0,0-1.49-6.23,11.49,11.49,0,0,0-6.92,6.1c-.27.55-.63,1-.95,1.58l-.62-.45c.74-4.36,4.09-6.56,7.72-8.45-1.68-3.19-4.21-2.91-6.58-1.37C853.58,294.49,850,299.6,847,305.47Z"/><text class="cls-1" transform="translate(232.43 756.69)">Black Forest</text><text class="cls-2" transform="translate(698.11 886.79)">C<tspan class="cls-3" x="62.65" y="0">OSMETI</tspan><tspan class="cls-4" x="415.79" y="0">C</tspan><tspan class="cls-5" x="479.37" y="0">S</tspan></text></svg>